<svg version="1.1" xmlns="http://www.w3.org/2000/svg" xmlns:xlink="http://www.w3.org/1999/xlink" width="209.00993" height="147.77348" viewBox="0,0,209.00993,147.77348"><g transform="translate(-192.32101,-82.56808)"><g data-paper-data="{&quot;isPaintingLayer&quot;:true}" stroke-miterlimit="10" stroke-dasharray="" stroke-dashoffset="0" style="mix-blend-mode: normal"><path d="M224.7,201.1c0.8,0.4 2.5,1.3 0.1,4.7c-2.4,3.4 -9.3,4.1 -10.1,4.1c-3.1,0.1 -6.9,0.1 -11.1,-1.3c-12.2,-4 -12.3,-17.1 -8.4,-19.2c3.8,-2.1 5.5,6 11,10.9c2.4,2.2 5.3,3 7.7,3.5c3.4,0.6 9.9,-3.2 10.8,-2.7z" fill="#49ff19" fill-rule="evenodd" stroke="#001026" stroke-width="1.2" stroke-linecap="round" stroke-linejoin="round"/><path d="M199.9,193c1.6,2.7 4.7,6.5 4.7,6.5c0,0 -3.7,-0.9 -5.8,0.8c-1.7,1.3 -1.3,3.5 -1.1,4.2c-1.3,-1.3 -2.9,-3.1 -3.9,-6.6c-1,-3.5 0,-7.7 2,-8.3c2,-0.4 2.5,1.1 4.1,3.4z" fill="#ffffff" fill-rule="evenodd" stroke="none" stroke-width="1" stroke-linecap="butt" stroke-linejoin="miter"/><path d="M229.7,211.5c-1.8,1.2 -8,5.6 -15.9,8.1l-0.4,0.1c-0.4,0.1 -0.6,0.6 -0.4,1c1.7,2.4 4.8,7.2 -0.7,8.9c-5.3,1.7 -15.2,-12.4 -11,-16.1c1.9,-1.4 3.6,-0.7 4.5,-0.3c0.5,0.2 1,0.2 1.5,0.1c1.2,-0.4 3.4,-1.2 5.1,-2.1c4.3,-2.2 5.3,-3.1 7.3,-4.6c2,-1.5 6.6,-5.2 10.3,-2c3.2,2.7 1.4,5.7 -0.3,6.9z" fill="#49ff19" fill-rule="evenodd" stroke="#001026" stroke-width="1.2" stroke-linecap="round" stroke-linejoin="round"/><path d="M245.6,190.7c0.5,0.4 6.6,7.6 8.6,5.8c2.4,-2.1 5.7,-6.2 9.3,-2.9c3.6,3.3 -3.2,8.9 -6.1,10.4c-6.9,3.1 -12.5,-2.8 -13.7,-4.4c-1.2,-1.6 -3.3,-4.3 -3.3,-6.9c0.1,-2.8 3.5,-3.5 5.2,-2z" fill="#49ff19" fill-rule="evenodd" stroke="#001026" stroke-width="1.2" stroke-linecap="round" stroke-linejoin="round"/><path d="M245.7,214c2.1,1.9 6.7,5.8 6.7,5.8c0,0 14.3,-2.5 14.3,4.7c0,4.3 -7.2,5.3 -16.9,4.4c-0.6,-0.1 -1.2,-0.3 -1.7,-0.7c-2.2,-1.9 -8.5,-7.5 -12.5,-11.4c-5.9,-5.8 -10.8,-9.6 -10.8,-9.6c-8.5,-8.3 -1.6,-11.8 1.1,-16.6c2.5,-4.1 3.6,-3.3 9.6,-2.1c3.4,0.5 5.4,0.8 7.6,0.7c3.3,-0.1 2.7,4.7 1.8,7.2c0,0 -1.4,3.7 -2.7,5.6c-1.6,2.3 -2.8,3.8 -4,4.7z" fill="#49ff19" fill-rule="evenodd" stroke="#001026" stroke-width="1.2" stroke-linecap="round" stroke-linejoin="round"/><path d="M237.3,206.6c0,0 -1.5,-1.2 -3.1,-2.7c-2,-1.8 -4,-3.3 -2,-6.4c1.8,-2.4 3.5,-5.6 8,-2.7c4.3,2.7 2.4,5.2 2.4,5.2c-2.2,4.5 -5.3,6.6 -5.3,6.6z" fill="#ffffff" fill-rule="evenodd" stroke="none" stroke-width="1" stroke-linecap="butt" stroke-linejoin="miter"/><path d="M222.2,198.4c2.2,2.8 5.6,6.3 1.3,9.2c-5.9,3.3 -10.8,-6.7 -11.8,-10.2c-0.9,-3.1 1.7,-5.1 3.9,-6.8c4.3,-3.1 7.9,-5.9 11.9,-4.4c5,1.8 1.4,5.8 -1.1,7.6c-1.5,1.1 -3,2.3 -4.1,3c-0.3,0.5 -0.4,1.1 -0.1,1.6z" fill="#49ff19" fill-rule="evenodd" stroke="#001026" stroke-width="1.2" stroke-linecap="round" stroke-linejoin="round"/><path d="M266.57547,143.73249c0.34785,-0.09485 0.79056,0.15816 0.75892,0.56925l-0.91768,10.97305c0,0 4.58494,6.48293 5.34368,10.21446c1.29618,6.22976 -0.03222,10.53038 -0.03222,10.53038c0,0 6.07133,4.23779 5.40693,10.02472c-0.6644,5.78693 -8.25437,14.64088 -27.25952,12.20486c-19.00515,-2.43603 -31.71697,-12.05007 -34.84689,-25.11045c-3.12992,-13.06038 11.79656,-22.41988 10.97433,-21.85072l3.66924,-17.6453c0.03164,-0.41109 0.60086,-0.53756 0.91707,-0.22131l8.98023,11.32146c0,0 4.80667,-0.18946 9.32865,1.10733c2.71952,0.69585 4.93306,1.64466 6.98848,2.75158z" fill="#49ff19" fill-rule="evenodd" stroke="#001026" stroke-width="1.2" stroke-linecap="butt" stroke-linejoin="miter"/><path d="M271.31705,176.30421c0,0 5.97648,3.88994 5.31208,9.67687c-0.6644,5.78693 -8.47569,14.04004 -27.25948,11.5724c-24.53911,-2.91068 -30.89432,-20.2087 -21.18568,-28.14546c9.74027,-8.03163 17.77176,4.23845 25.93032,6.32601c6.98853,1.80289 9.74004,-3.92067 17.20276,0.57018z" fill="#ffffff" fill-rule="evenodd" stroke="none" stroke-width="1" stroke-linecap="butt" stroke-linejoin="miter"/><path d="M247.27684,180.31481c10.41545,1.45893 12.68007,9.55593 13.03632,12.3796c0.09867,0.5294 -0.39115,0.9418 -0.86206,0.74623c-1.41271,-0.58673 -4.49279,-1.50494 -9.84763,-2.26365c-5.96283,-0.77762 -11.57115,-0.26129 -13.57118,0.05479c-0.41182,0.02008 -0.74565,-0.35215 -0.66765,-0.74447c0.66121,-4.86444 2.79189,-10.9661 11.9122,-10.17249z" data-paper-data="{&quot;index&quot;:null}" fill="#ffffff" fill-rule="evenodd" stroke="#001026" stroke-width="1.2" stroke-linecap="round" stroke-linejoin="round"/><path d="M288.42458,183.16732c-5.6606,2.1184 -12.52261,-0.06395 -12.52261,-0.06395" fill="none" fill-rule="evenodd" stroke="#001026" stroke-width="1.2" stroke-linecap="round" stroke-linejoin="round"/><path d="M283.64897,193.38121c-6.13473,-1.51824 -9.2336,-4.5542 -9.2336,-4.5542" fill="none" fill-rule="evenodd" stroke="#001026" stroke-width="1.2" stroke-linecap="round" stroke-linejoin="round"/><path d="M254.55716,173.14099c1.9922,0.66419 4.01601,1.54974 3.88948,2.24544c-0.34792,1.35976 -2.65651,3.5416 -4.20601,3.13041c-1.77086,-0.37957 -4.96454,-4.07961 -4.45849,-5.59748c0.28467,-1.17003 2.87769,-0.41093 4.77502,0.22163z" fill="#001026" fill-rule="evenodd" stroke="#001026" stroke-width="1.2" stroke-linecap="round" stroke-linejoin="round"/><path d="M212.34163,157.48534c0,0 7.27294,5.37629 9.61279,9.42413" fill="none" fill-rule="evenodd" stroke="#001026" stroke-width="1.2" stroke-linecap="round" stroke-linejoin="round"/><path d="M221.13204,170.32468c-4.61694,0.25272 -11.28915,-3.13129 -11.28915,-3.13129" fill="none" fill-rule="evenodd" stroke="#001026" stroke-width="1.2" stroke-linecap="round" stroke-linejoin="round"/><g fill-rule="evenodd"><path d="M269.4519,165.77372c1.32786,5.18621 -0.19031,10.05604 -3.41588,10.87805c-3.22557,0.82201 -6.92524,-2.62508 -8.34797,-7.84292c-1.32786,-5.18621 0.1903,-10.05603 3.41587,-10.87804c3.2572,-0.91688 7.02011,2.65671 8.34797,7.84292z" fill="#ffffff" stroke="#001026" stroke-width="1.2" stroke-linecap="round" stroke-linejoin="round"/><path d="M267.26963,171.0546c-0.34791,1.04353 -1.3915,1.64431 -2.34016,1.32802c-0.94867,-0.31628 -1.42294,-1.4231 -1.07503,-2.46663c0.34791,-1.04353 1.39149,-1.64431 2.34016,-1.32802c0.94867,0.31628 1.42295,1.4231 1.07504,2.46663" fill="#001026" stroke="none" stroke-width="1" stroke-linecap="butt" stroke-linejoin="miter"/></g><g fill-rule="evenodd"><path d="M245.03941,160.58621c1.45436,5.12297 -0.4433,10.18251 -3.60563,11.13102c-3.73153,0.75874 -7.46286,-1.96104 -8.91723,-7.08401c-1.54923,-5.1546 0.06384,-10.62525 3.70052,-11.73184c3.66831,-1.20146 7.36796,2.56186 8.82233,7.68483z" fill="#ffffff" stroke="#001026" stroke-width="1.2" stroke-linecap="round" stroke-linejoin="round"/><path d="M242.63578,165.8987c-0.34791,1.04353 -1.39149,1.64431 -2.34016,1.32802c-0.94867,-0.31628 -1.42294,-1.4231 -1.07503,-2.46663c0.34791,-1.04353 1.39149,-1.64431 2.34016,-1.32802c0.91703,0.41115 1.42294,1.4231 1.07503,2.46663" fill="#001026" stroke="none" stroke-width="1" stroke-linecap="butt" stroke-linejoin="miter"/></g><g fill-rule="nonzero" stroke="none" stroke-width="1" stroke-linecap="butt" stroke-linejoin="miter"><path d="M381.5652,129.91943c0,14.527 -12.525,26.307 -27.978,26.307c-15.453,0 -27.977,-11.775 -27.977,-26.307c0,-14.527 12.523,-21.275 27.977,-21.275c15.452,-0.001 27.978,6.749 27.978,21.275z" fill="#ec1c2c"/><g fill="#231f20"><path d="M384.6982,129.63843c0,16.156 -13.927,29.254 -31.109,29.254c-17.179,0 -31.107,-13.098 -31.107,-29.254c0,-14.238 10.821,-20.648 25.149,-21.972c0,0 4.528,-0.58 9.136,-0.189c15.684,0.73 27.931,7.017 27.931,22.161zM379.9522,130.06743c0,-12.602 -10.007,-18.984 -22.949,-19.92c0,0 -8.207,0.115 -8.456,0.144c-12.145,1.341 -21.314,7.71 -21.314,19.774c0,13.686 11.798,24.785 26.357,24.785c14.558,0 26.356,-11.097 26.362,-24.783z"/><path d="M362.5422,116.58243c-3.568,0.181 -6.986,0.271 -10.561,0.672c-2.387,0.268 -4.687,0.289 -6.455,-1.514c-0.384,-0.395 0.118,-1.076 0.598,-0.773c1.182,0.741 2.373,1.041 3.571,1.099c0.078,0.064 4.274,-0.49 6.19,-1.098c2.312,-0.63 4.626,-1.15 6.929,-0.389c1.101,0.364 0.888,1.942 -0.272,2.003z"/></g><path d="M335.0372,129.77843c0,3.431 1.85,6.212 -0.084,6.212c-1.934,0 -3.5,-2.781 -3.5,-6.212c0,-3.43 1.566,-6.211 3.5,-6.211c1.934,0 0.084,2.782 0.084,6.211z" fill="#ffffff"/></g><g fill-rule="nonzero" stroke="none" stroke-width="1" stroke-linecap="butt" stroke-linejoin="miter"><path d="M346.5982,100.20343c1.021,-0.61 2.039,-1.222 3.059,-1.833c0.734,1.128 1.472,2.229 2.064,3.482c2.162,4.564 1.686,9.385 1.624,14.212c-0.375,0.089 -0.977,0.153 -1.348,0.219c0.258,-6.148 -1.205,-11.784 -5.399,-16.08z" fill="#99661d"/><path d="M355.7792,113.95543c0,0 -0.23,1.876 -0.251,2.23c0,0 -3.771,1.124 -5.25,0.562l-0.046,-1.609c0.03,-3.215 -0.97,-6.668 -1.562,-7.749c-0.283,-0.516 -1.423,-3.466 -4.9,-6.557c-0.596,-0.527 -0.395,-1.515 0.242,-1.898c1.807,-1.084 3.609,-2.168 5.414,-3.252c0.58,-0.347 1.265,-0.088 1.658,0.435c5.528,7.358 4.864,17.077 4.695,17.838zM353.2432,114.66943c0.112,-4.442 0.49,-8.57 -1.522,-12.817c-0.592,-1.253 -1.33,-2.354 -2.064,-3.482c-1.02,0.611 -2.038,1.223 -3.059,1.833c3.962,4.058 5.58,8.969 5.53,14.683v1.152l1.109,-0.141z" fill="#231f20"/></g><path d="M400.08095,126.96047c0,23.82688 -20.43377,43.14238 -45.6401,43.14238c-25.20633,0 -45.6401,-19.3155 -45.6401,-43.14238c0,-23.82688 20.43377,-43.14238 45.6401,-43.14238c25.20633,0 45.6401,19.3155 45.6401,43.14238z" fill="none" fill-rule="nonzero" stroke="#ff0000" stroke-width="2.5" stroke-linecap="butt" stroke-linejoin="miter"/><path d="M283.73309,167.53726l23.83694,-10.9573l-14.9942,-1.34563" fill="none" fill-rule="nonzero" stroke="#ff0000" stroke-width="2.5" stroke-linecap="round" stroke-linejoin="miter"/><path d="M309.68459,156.57996l-3.26797,19.6078" fill="none" fill-rule="nonzero" stroke="#ff0000" stroke-width="2.5" stroke-linecap="round" stroke-linejoin="miter"/></g></g></svg>